<svg width="59" height="59" viewBox="0 0 59 59" fill="none" xmlns="http://www.w3.org/2000/svg">
<rect x="1" y="1" width="57" height="57" rx="11" stroke="#0267ED" stroke-width="2"/>
<path d="M29.5 26.0312C28.58 26.0312 27.6977 26.3967 27.0472 27.0472C26.3967 27.6977 26.0312 28.58 26.0312 29.5C26.0312 30.42 26.3967 31.3023 27.0472 31.9528C27.6977 32.6033 28.58 32.9688 29.5 32.9688C30.42 32.9688 31.3023 32.6033 31.9528 31.9528C32.6033 31.3023 32.9688 30.42 32.9688 29.5C32.9688 28.58 32.6033 27.6977 31.9528 27.0472C31.3023 26.3967 30.42 26.0312 29.5 26.0312Z" fill="#0267ED"/>
<path fill-rule="evenodd" clip-rule="evenodd" d="M29.5001 19.4792C25.464 19.4792 21.8349 21.0995 19.2202 23.1067C17.9098 24.1119 16.8353 25.2281 16.0814 26.3134C15.3414 27.3802 14.8542 28.4995 14.8542 29.5C14.8542 30.5006 15.343 31.6198 16.0814 32.6851C16.8368 33.772 17.9098 34.8881 19.2202 35.8918C21.8349 37.9021 25.464 39.5209 29.5001 39.5209C33.5362 39.5209 37.1652 37.9006 39.7799 35.8933C41.0903 34.8881 42.1649 33.772 42.9172 32.6866C43.6572 31.6198 44.1459 30.5006 44.1459 29.5C44.1459 28.4995 43.6572 27.3802 42.9172 26.3149C42.1649 25.2281 41.0903 24.1119 39.7799 23.1083C37.1652 21.0979 33.5362 19.4792 29.5001 19.4792ZM23.7188 29.5C23.7188 27.9667 24.3279 26.4963 25.4121 25.4121C26.4963 24.3279 27.9668 23.7188 29.5001 23.7188C31.0334 23.7188 32.5038 24.3279 33.588 25.4121C34.6722 26.4963 35.2813 27.9667 35.2813 29.5C35.2813 31.0333 34.6722 32.5038 33.588 33.588C32.5038 34.6722 31.0334 35.2813 29.5001 35.2813C27.9668 35.2813 26.4963 34.6722 25.4121 33.588C24.3279 32.5038 23.7188 31.0333 23.7188 29.5Z" fill="#0267ED"/>
</svg>
